<svg width="34" height="34" viewBox="0 0 34 34" fill="none" xmlns="http://www.w3.org/2000/svg">
<mask id="path-1-inside-1_211_2338" fill="white">
<path d="M19.7068 16.4584C19.5392 16.4584 19.3835 16.4123 19.2453 16.3382V16.3402C19.2453 16.6039 19.1428 16.8515 18.9568 17.037C18.7709 17.223 18.5234 17.3255 18.26 17.3255C18.09 17.3255 17.9324 17.2782 17.7926 17.2021C17.7785 17.4434 17.6821 17.6688 17.5101 17.8411C17.3241 18.027 17.0766 18.1295 16.8131 18.1295C16.2894 18.1295 15.8642 17.7179 15.8336 17.202C15.6715 17.2895 15.4884 17.3355 15.2994 17.3233C14.7843 17.2895 14.3809 16.8445 14.3809 16.3098V11.8782L13.8763 12.7524C13.6841 13.0868 13.3243 13.2944 12.9369 13.2944C12.7482 13.2944 12.5617 13.2449 12.3966 13.1503C12.1909 13.0311 12.0438 12.8397 11.9826 12.6107C11.9212 12.3816 11.953 12.142 12.0719 11.9367C12.072 11.9367 13.7229 9.0778 13.8236 8.90219C13.8356 8.87579 13.8697 8.79921 13.8988 8.73394C13.9265 8.67162 13.9503 8.60766 13.973 8.54338C14.4709 7.13782 15.7037 6.26471 17.1904 6.26471C19.1211 6.26471 20.6918 7.96793 20.6918 10.0615L20.692 15.473C20.692 15.7364 20.5896 15.9838 20.4038 16.17C20.2179 16.3559 19.9704 16.4584 19.7067 16.4584L19.7068 16.4584ZM17.1904 6.78826C15.9129 6.78826 14.8947 7.50984 14.4665 8.71847C14.4391 8.79521 14.4106 8.87196 14.3773 8.94674C14.2807 9.16338 14.2807 9.16338 14.2535 9.19453L14.2499 9.19142C14.1151 9.44577 13.7146 10.1393 12.5252 12.1987C12.4763 12.2832 12.4634 12.3812 12.4883 12.475C12.5135 12.5689 12.574 12.6479 12.6578 12.6963C12.9179 12.8457 13.2741 12.7492 13.4224 12.491L14.416 10.7707C14.4754 10.6682 14.5954 10.6178 14.7105 10.649C14.825 10.6796 14.9046 10.7834 14.9046 10.9018V16.31C14.9046 16.5652 15.0971 16.7854 15.3337 16.801C15.4702 16.8082 15.5974 16.7624 15.693 16.667C15.78 16.5801 15.8278 16.4643 15.8278 16.3405V12.8035C15.8278 12.6588 15.9451 12.5416 16.0897 12.5416C16.2344 12.5416 16.3516 12.6587 16.3516 12.8035L16.3515 17.1444C16.3515 17.3989 16.5586 17.6061 16.8131 17.6061C16.9368 17.6061 17.0529 17.5582 17.1399 17.4713C17.2269 17.3842 17.2747 17.2681 17.2747 17.1444V12.8035C17.2747 12.6588 17.3918 12.5416 17.5366 12.5416C17.6813 12.5416 17.7985 12.6587 17.7985 12.8035L17.7984 16.2998V16.3405C17.7984 16.5948 18.0055 16.8019 18.2602 16.8019C18.3837 16.8019 18.4994 16.7539 18.587 16.6666C18.6739 16.5799 18.7218 16.4641 18.7218 16.3403V12.8033C18.7218 12.6587 18.8389 12.5414 18.9837 12.5414C19.1284 12.5414 19.2456 12.6585 19.2456 12.8033L19.2453 15.4731C19.2453 15.7278 19.4524 15.9349 19.7067 15.9349C19.8306 15.9349 19.9463 15.8869 20.0333 15.8001C20.1205 15.7129 20.1682 15.5968 20.1682 15.4731L20.1684 10.0616C20.1684 8.25689 18.8325 6.78831 17.1904 6.78831L17.1904 6.78826Z"/>
</mask>
<path d="M19.7068 16.4584C19.5392 16.4584 19.3835 16.4123 19.2453 16.3382V16.3402C19.2453 16.6039 19.1428 16.8515 18.9568 17.037C18.7709 17.223 18.5234 17.3255 18.26 17.3255C18.09 17.3255 17.9324 17.2782 17.7926 17.2021C17.7785 17.4434 17.6821 17.6688 17.5101 17.8411C17.3241 18.027 17.0766 18.1295 16.8131 18.1295C16.2894 18.1295 15.8642 17.7179 15.8336 17.202C15.6715 17.2895 15.4884 17.3355 15.2994 17.3233C14.7843 17.2895 14.3809 16.8445 14.3809 16.3098V11.8782L13.8763 12.7524C13.6841 13.0868 13.3243 13.2944 12.9369 13.2944C12.7482 13.2944 12.5617 13.2449 12.3966 13.1503C12.1909 13.0311 12.0438 12.8397 11.9826 12.6107C11.9212 12.3816 11.953 12.142 12.0719 11.9367C12.072 11.9367 13.7229 9.0778 13.8236 8.90219C13.8356 8.87579 13.8697 8.79921 13.8988 8.73394C13.9265 8.67162 13.9503 8.60766 13.973 8.54338C14.4709 7.13782 15.7037 6.26471 17.1904 6.26471C19.1211 6.26471 20.6918 7.96793 20.6918 10.0615L20.692 15.473C20.692 15.7364 20.5896 15.9838 20.4038 16.17C20.2179 16.3559 19.9704 16.4584 19.7067 16.4584L19.7068 16.4584ZM17.1904 6.78826C15.9129 6.78826 14.8947 7.50984 14.4665 8.71847C14.4391 8.79521 14.4106 8.87196 14.3773 8.94674C14.2807 9.16338 14.2807 9.16338 14.2535 9.19453L14.2499 9.19142C14.1151 9.44577 13.7146 10.1393 12.5252 12.1987C12.4763 12.2832 12.4634 12.3812 12.4883 12.475C12.5135 12.5689 12.574 12.6479 12.6578 12.6963C12.9179 12.8457 13.2741 12.7492 13.4224 12.491L14.416 10.7707C14.4754 10.6682 14.5954 10.6178 14.7105 10.649C14.825 10.6796 14.9046 10.7834 14.9046 10.9018V16.31C14.9046 16.5652 15.0971 16.7854 15.3337 16.801C15.4702 16.8082 15.5974 16.7624 15.693 16.667C15.78 16.5801 15.8278 16.4643 15.8278 16.3405V12.8035C15.8278 12.6588 15.9451 12.5416 16.0897 12.5416C16.2344 12.5416 16.3516 12.6587 16.3516 12.8035L16.3515 17.1444C16.3515 17.3989 16.5586 17.6061 16.8131 17.6061C16.9368 17.6061 17.0529 17.5582 17.1399 17.4713C17.2269 17.3842 17.2747 17.2681 17.2747 17.1444V12.8035C17.2747 12.6588 17.3918 12.5416 17.5366 12.5416C17.6813 12.5416 17.7985 12.6587 17.7985 12.8035L17.7984 16.2998V16.3405C17.7984 16.5948 18.0055 16.8019 18.2602 16.8019C18.3837 16.8019 18.4994 16.7539 18.587 16.6666C18.6739 16.5799 18.7218 16.4641 18.7218 16.3403V12.8033C18.7218 12.6587 18.8389 12.5414 18.9837 12.5414C19.1284 12.5414 19.2456 12.6585 19.2456 12.8033L19.2453 15.4731C19.2453 15.7278 19.4524 15.9349 19.7067 15.9349C19.8306 15.9349 19.9463 15.8869 20.0333 15.8001C20.1205 15.7129 20.1682 15.5968 20.1682 15.4731L20.1684 10.0616C20.1684 8.25689 18.8325 6.78831 17.1904 6.78831L17.1904 6.78826Z" fill="#4CAF4F"/>
<path d="M19.7068 16.4584V15.5303H22.9858L20.1932 17.2488L19.7068 16.4584ZM19.2453 16.3382H18.3172V14.7875L19.6839 15.5203L19.2453 16.3382ZM18.9568 17.037L18.3006 16.3807L18.3014 16.3799L18.9568 17.037ZM17.7926 17.2021L16.8661 17.148L16.9515 15.6873L18.2365 16.3871L17.7926 17.2021ZM17.5101 17.8411L18.1667 18.497L18.1663 18.4973L17.5101 17.8411ZM15.8336 17.202L15.3923 16.3855L16.6736 15.6929L16.76 17.1469L15.8336 17.202ZM15.2994 17.3233L15.2399 18.2495L15.2387 18.2494L15.2994 17.3233ZM14.3809 11.8782L13.5771 11.4142L15.309 8.41382V11.8782H14.3809ZM13.8763 12.7524L13.0716 12.2899L13.0725 12.2885L13.8763 12.7524ZM12.3966 13.1503L11.9351 13.9555L11.9311 13.9532L12.3966 13.1503ZM11.9826 12.6107L12.879 12.3701L12.8793 12.3712L11.9826 12.6107ZM12.0719 11.9367L11.2687 11.4716L11.5368 11.0086H12.0719V11.9367ZM13.8236 8.90219L14.6689 9.28545L14.6507 9.32564L14.6287 9.36392L13.8236 8.90219ZM13.8988 8.73394L13.0507 8.35681L13.0507 8.3568L13.8988 8.73394ZM13.973 8.54338L14.8479 8.85325L14.8478 8.8535L13.973 8.54338ZM20.6918 10.0615L19.7637 10.0615V10.0615H20.6918ZM20.692 15.473L21.6201 15.473V15.473H20.692ZM20.4038 16.17L21.0607 16.8256L21.0601 16.8262L20.4038 16.17ZM19.7067 16.4584V17.3865H16.4277L19.2203 15.668L19.7067 16.4584ZM17.1904 6.78826V5.86016H18.4208L18.0828 7.04322L17.1904 6.78826ZM14.4665 8.71847L15.3413 9.02839L15.3406 9.03038L14.4665 8.71847ZM14.3773 8.94674L15.2252 9.3242L15.225 9.32469L14.3773 8.94674ZM14.2535 9.19453L14.9524 9.80519L14.3452 10.5001L13.6469 9.89694L14.2535 9.19453ZM14.2499 9.19142L13.4298 8.75681L13.9752 7.72786L14.8565 8.48902L14.2499 9.19142ZM12.5252 12.1987L13.3289 12.6629L13.3285 12.6636L12.5252 12.1987ZM12.4883 12.475L11.5921 12.7163L11.5913 12.7134L12.4883 12.475ZM12.6578 12.6963L12.1956 13.501L12.1938 13.5L12.6578 12.6963ZM13.4224 12.491L12.6174 12.029L12.6187 12.0268L13.4224 12.491ZM14.416 10.7707L13.6123 10.3065L13.6129 10.3055L14.416 10.7707ZM14.7105 10.649L14.4704 11.5455L14.4681 11.5448L14.7105 10.649ZM15.3337 16.801L15.2847 17.7278L15.2728 17.727L15.3337 16.801ZM15.693 16.667L16.3493 17.3232L16.3487 17.3238L15.693 16.667ZM16.3516 12.8035H17.2797V12.8035L16.3516 12.8035ZM16.3515 17.1444H15.4234V17.1444L16.3515 17.1444ZM17.1399 17.4713L17.7968 18.1269L17.7956 18.1282L17.1399 17.4713ZM17.7985 12.8035H18.7266V12.8035L17.7985 12.8035ZM17.7984 16.2998H16.8703V16.2997L17.7984 16.2998ZM18.587 16.6666L19.2427 17.3235L19.242 17.3241L18.587 16.6666ZM19.2456 12.8033H20.1737V12.8034L19.2456 12.8033ZM19.2453 15.4731H18.3172V15.473L19.2453 15.4731ZM20.0333 15.8001L20.6895 16.4564L20.6889 16.457L20.0333 15.8001ZM20.1682 15.4731H19.2401V15.4731L20.1682 15.4731ZM20.1684 10.0616H21.0965V10.0616L20.1684 10.0616ZM17.1904 6.78831V7.7164H15.96L16.298 6.53334L17.1904 6.78831ZM19.7068 16.4584V17.3865C19.365 17.3865 19.0599 17.2919 18.8067 17.1561L19.2453 16.3382L19.6839 15.5203C19.6959 15.5267 19.7035 15.5292 19.7065 15.53C19.7091 15.5307 19.7088 15.5303 19.7068 15.5303V16.4584ZM19.2453 16.3382H20.1734V16.3402H19.2453H18.3172V16.3382H19.2453ZM19.2453 16.3402H20.1734C20.1734 16.8492 19.9736 17.3337 19.6122 17.6941L18.9568 17.037L18.3014 16.3799C18.3081 16.3732 18.3114 16.3676 18.3133 16.3629C18.3152 16.3583 18.3172 16.3511 18.3172 16.3402H19.2453ZM18.9568 17.037L19.6131 17.6932C19.2529 18.0534 18.7693 18.2535 18.26 18.2535V17.3255V16.3974C18.2707 16.3974 18.2777 16.3954 18.2824 16.3935C18.2872 16.3915 18.2933 16.388 18.3006 16.3807L18.9568 17.037ZM18.26 17.3255V18.2535C17.9138 18.2535 17.6049 18.1567 17.3488 18.0172L17.7926 17.2021L18.2365 16.3871C18.2486 16.3936 18.2562 16.3961 18.2593 16.397C18.2619 16.3977 18.2617 16.3974 18.26 16.3974V17.3255ZM17.7926 17.2021L18.7191 17.2563C18.6924 17.7131 18.5071 18.1562 18.1667 18.497L17.5101 17.8411L16.8535 17.1851C16.8569 17.1817 16.8589 17.1786 16.8606 17.1748C16.8624 17.1706 16.8653 17.1621 16.8661 17.148L17.7926 17.2021ZM17.5101 17.8411L18.1663 18.4973C17.8061 18.8575 17.3225 19.0576 16.8131 19.0576V18.1295V17.2014C16.8239 17.2014 16.831 17.1995 16.8357 17.1975C16.8404 17.1955 16.8466 17.192 16.8538 17.1848L17.5101 17.8411ZM16.8131 18.1295V19.0576C15.7885 19.0576 14.9663 18.2534 14.9071 17.257L15.8336 17.202L16.76 17.1469C16.761 17.1627 16.7674 17.1766 16.7788 17.1875C16.7844 17.1928 16.7901 17.1962 16.795 17.1982C16.7993 17.2 16.8048 17.2014 16.8131 17.2014V18.1295ZM15.8336 17.202L16.2748 18.0184C15.9751 18.1805 15.6196 18.2739 15.2399 18.2495L15.2994 17.3233L15.3589 16.3971C15.3589 16.3971 15.3609 16.3973 15.3658 16.3962C15.371 16.395 15.3801 16.3921 15.3923 16.3855L15.8336 17.202ZM15.2994 17.3233L15.2387 18.2494C14.2082 18.1818 13.4528 17.3055 13.4528 16.3098H14.3809H15.309C15.309 16.3412 15.3204 16.3654 15.3347 16.3811C15.3486 16.3965 15.358 16.3971 15.3602 16.3972L15.2994 17.3233ZM14.3809 16.3098H13.4528V11.8782H14.3809H15.309V16.3098H14.3809ZM14.3809 11.8782L15.1847 12.3422L14.6801 13.2164L13.8763 12.7524L13.0725 12.2885L13.5771 11.4142L14.3809 11.8782ZM13.8763 12.7524L14.6809 13.2149C14.3223 13.8389 13.6548 14.2225 12.9369 14.2225V13.2944V12.3663C12.9938 12.3663 13.0459 12.3348 13.0716 12.2899L13.8763 12.7524ZM12.9369 13.2944V14.2225C12.586 14.2225 12.2405 14.1305 11.9352 13.9555L12.3966 13.1503L12.858 12.345C12.8829 12.3593 12.9104 12.3663 12.9369 12.3663V13.2944ZM12.3966 13.1503L11.9311 13.9532C11.5144 13.7116 11.2111 13.3185 11.086 12.8503L11.9826 12.6107L12.8793 12.3712C12.8784 12.368 12.8761 12.3624 12.8717 12.3566C12.8672 12.3508 12.8631 12.348 12.8621 12.3474L12.3966 13.1503ZM11.9826 12.6107L11.0863 12.8513C10.9607 12.3835 11.0264 11.89 11.2687 11.4716L12.0719 11.9367L12.875 12.4018C12.8763 12.3995 12.8787 12.3942 12.8797 12.3867C12.8807 12.3792 12.8798 12.3732 12.879 12.3701L11.9826 12.6107ZM12.0719 11.9367V11.0086C11.6166 11.1279 11.2758 11.4595 11.2733 11.4638C11.2724 11.4652 11.2712 11.4674 11.2708 11.4681C11.2705 11.4685 11.2701 11.4691 11.27 11.4694C11.2699 11.4695 11.2698 11.4698 11.2697 11.4699C11.2696 11.4701 11.2696 11.47 11.27 11.4694C11.2706 11.4683 11.2717 11.4665 11.2732 11.4638C11.2763 11.4586 11.2808 11.4506 11.2869 11.4402C11.299 11.4193 11.3167 11.3885 11.3394 11.3493C11.3847 11.2708 11.4496 11.1585 11.5278 11.0231C11.6841 10.7524 11.8937 10.3896 12.1063 10.0212C12.5323 9.28337 12.9691 8.52672 13.0186 8.44046L13.8236 8.90219L14.6287 9.36392C14.5775 9.45327 14.1384 10.2139 13.7138 10.9494C13.5011 11.3177 13.2916 11.6806 13.1352 11.9514C13.057 12.0868 12.9921 12.1992 12.9467 12.2777C12.924 12.317 12.9062 12.3479 12.894 12.3689C12.8879 12.3794 12.8832 12.3876 12.88 12.3931C12.8784 12.3959 12.8771 12.3982 12.8762 12.3998C12.8757 12.4006 12.8751 12.4016 12.8746 12.4025C12.8744 12.4028 12.8738 12.4038 12.8731 12.4051C12.8727 12.4058 12.8713 12.4081 12.8705 12.4095C12.8679 12.4138 12.5271 12.7455 12.0719 12.8648V11.9367ZM13.8236 8.90219L12.9784 8.51893C12.9886 8.4964 13.021 8.42376 13.0507 8.35681L13.8988 8.73394L14.7468 9.11106C14.7185 9.17465 14.6826 9.25518 14.6689 9.28545L13.8236 8.90219ZM13.8988 8.73394L13.0507 8.3568C13.0636 8.32779 13.0779 8.29073 13.0983 8.23325L13.973 8.54338L14.8478 8.8535C14.8226 8.92459 14.7893 9.01544 14.7468 9.11107L13.8988 8.73394ZM13.973 8.54338L13.0982 8.2335C13.7268 6.45888 15.309 5.33662 17.1904 5.33662V6.26471V7.19281C16.0984 7.19281 15.215 7.81675 14.8479 8.85325L13.973 8.54338ZM17.1904 6.26471V5.33662C19.703 5.33662 21.6199 7.52756 21.6199 10.0615H20.6918H19.7637C19.7637 8.40829 18.5392 7.19281 17.1904 7.19281V6.26471ZM20.6918 10.0615L21.6199 10.0615L21.6201 15.473L20.692 15.473L19.7639 15.473L19.7637 10.0615L20.6918 10.0615ZM20.692 15.473H21.6201C21.6201 15.9819 21.4204 16.4653 21.0607 16.8256L20.4038 16.17L19.747 15.5143C19.7543 15.507 19.7579 15.5007 19.7599 15.4958C19.7619 15.491 19.7639 15.4838 19.7639 15.473H20.692ZM20.4038 16.17L21.0601 16.8262C20.6998 17.1865 20.2162 17.3865 19.7067 17.3865V16.4584V15.5303C19.7176 15.5303 19.7248 15.5284 19.7295 15.5264C19.7342 15.5244 19.7403 15.5209 19.7476 15.5137L20.4038 16.17ZM19.7067 16.4584L19.2203 15.668L19.2204 15.668L19.7068 16.4584L20.1932 17.2488L20.1931 17.2488L19.7067 16.4584ZM17.1904 6.78826V7.71635C16.308 7.71635 15.6389 8.18839 15.3413 9.02839L14.4665 8.71847L13.5917 8.40855C14.1505 6.8313 15.5178 5.86016 17.1904 5.86016V6.78826ZM14.4665 8.71847L15.3406 9.03038C15.3113 9.11248 15.2733 9.21617 15.2252 9.3242L14.3773 8.94674L13.5294 8.56929C13.5479 8.52776 13.5669 8.47795 13.5924 8.40655L14.4665 8.71847ZM14.3773 8.94674L15.225 9.32469C15.1825 9.42001 15.1468 9.50051 15.1196 9.55504C15.1027 9.58888 15.0753 9.64104 15.0356 9.69881C14.9954 9.75734 14.9556 9.80149 14.9524 9.80519L14.2535 9.19453L13.5546 8.58388C13.5568 8.58139 13.5561 8.5822 13.555 8.58347C13.5535 8.58512 13.5499 8.58933 13.5452 8.5951C13.5403 8.60107 13.5341 8.60879 13.5272 8.61797C13.5202 8.62723 13.513 8.63708 13.5059 8.64747C13.4913 8.66863 13.4801 8.68716 13.4722 8.70117C13.4647 8.71426 13.4602 8.72331 13.4592 8.72535C13.4581 8.72746 13.4588 8.72622 13.4619 8.71947C13.465 8.71292 13.4693 8.7035 13.4755 8.68979C13.4817 8.67619 13.489 8.65977 13.4981 8.63948C13.5072 8.61922 13.5175 8.59601 13.5297 8.5688L14.3773 8.94674ZM14.2535 9.19453L13.6469 9.89694L13.6433 9.89382L14.2499 9.19142L14.8565 8.48902L14.8601 8.49213L14.2535 9.19453ZM14.2499 9.19142L15.0699 9.62602C14.9247 9.9001 14.51 10.6178 13.3289 12.6629L12.5252 12.1987L11.7215 11.7346C12.9192 9.66075 13.3055 8.99144 13.4298 8.75681L14.2499 9.19142ZM12.5252 12.1987L13.3285 12.6636C13.4027 12.5352 13.4234 12.3804 13.3852 12.2367L12.4883 12.475L11.5913 12.7134C11.5033 12.3821 11.5499 12.0311 11.7219 11.7339L12.5252 12.1987ZM12.4883 12.475L13.3845 12.2338C13.3463 12.0919 13.2524 11.9679 13.1219 11.8925L12.6578 12.6963L12.1938 13.5C11.8957 13.3279 11.6808 13.0458 11.5921 12.7163L12.4883 12.475ZM12.6578 12.6963L13.1201 11.8915C13.0145 11.8308 12.9117 11.8312 12.8408 11.8503C12.7701 11.8693 12.6795 11.9209 12.6174 12.029L13.4224 12.491L14.2273 12.9529C13.8228 13.6577 12.8984 13.9048 12.1956 13.501L12.6578 12.6963ZM13.4224 12.491L12.6187 12.0268L13.6124 10.3065L14.416 10.7707L15.2197 11.2348L14.2261 12.9551L13.4224 12.491ZM14.416 10.7707L13.6129 10.3055C13.881 9.84267 14.4282 9.61105 14.953 9.75311L14.7105 10.649L14.4681 11.5448C14.7627 11.6246 15.0698 11.4936 15.2191 11.2358L14.416 10.7707ZM14.7105 10.649L14.9507 9.75249C15.4714 9.89199 15.8326 10.3638 15.8326 10.9018H14.9046H13.9765C13.9765 11.2031 14.1786 11.4673 14.4704 11.5455L14.7105 10.649ZM14.9046 10.9018H15.8326V16.31H14.9046H13.9765V10.9018H14.9046ZM14.9046 16.31H15.8326C15.8326 16.2042 15.7935 16.1081 15.7291 16.0345C15.6649 15.961 15.5516 15.8852 15.3947 15.8749L15.3337 16.801L15.2728 17.727C14.4915 17.6756 13.9765 16.9951 13.9765 16.31H14.9046ZM15.3337 16.801L15.3827 15.8742C15.2731 15.8684 15.1391 15.9085 15.0374 16.0101L15.693 16.667L16.3487 17.3238C16.0557 17.6163 15.6672 17.748 15.2847 17.7278L15.3337 16.801ZM15.693 16.667L15.0368 16.0107C14.9487 16.0988 14.8997 16.2195 14.8997 16.3405H15.8278H16.7559C16.7559 16.7091 16.6112 17.0613 16.3493 17.3232L15.693 16.667ZM15.8278 16.3405H14.8997V12.8035H15.8278H16.7559V16.3405H15.8278ZM15.8278 12.8035H14.8997C14.8997 12.1463 15.4325 11.6135 16.0897 11.6135V12.5416V13.4697C16.4577 13.4697 16.7559 13.1714 16.7559 12.8035H15.8278ZM16.0897 12.5416V11.6135C16.7466 11.6135 17.2797 12.1457 17.2797 12.8035H16.3516H15.4235C15.4235 13.1716 15.7222 13.4697 16.0897 13.4697V12.5416ZM16.3516 12.8035L17.2797 12.8035L17.2796 17.1445L16.3515 17.1444L15.4234 17.1444L15.4235 12.8034L16.3516 12.8035ZM16.3515 17.1444H17.2796C17.2796 16.8864 17.0712 16.678 16.8131 16.678V17.6061V18.5342C16.046 18.5342 15.4234 17.9115 15.4234 17.1444H16.3515ZM16.8131 17.6061V16.678C16.6923 16.678 16.5722 16.7266 16.4843 16.8144L17.1399 17.4713L17.7956 18.1282C17.5335 18.3897 17.1812 18.5342 16.8131 18.5342V17.6061ZM17.1399 17.4713L16.4831 16.8156C16.3953 16.9035 16.3467 17.0236 16.3467 17.1444H17.2747H18.2028C18.2028 17.5125 18.0584 17.8648 17.7968 18.1269L17.1399 17.4713ZM17.2747 17.1444H16.3467V12.8035H17.2747H18.2028V17.1444H17.2747ZM17.2747 12.8035H16.3467C16.3467 12.1467 16.8789 11.6135 17.5366 11.6135V12.5416V13.4697C17.9048 13.4697 18.2028 13.171 18.2028 12.8035H17.2747ZM17.5366 12.5416V11.6135C18.1935 11.6135 18.7266 12.1457 18.7266 12.8035H17.7985H16.8704C16.8704 13.1716 17.1691 13.4697 17.5366 13.4697V12.5416ZM17.7985 12.8035L18.7266 12.8035L18.7265 16.2998L17.7984 16.2998L16.8703 16.2997L16.8704 12.8034L17.7985 12.8035ZM17.7984 16.2998H18.7265V16.3405H17.7984H16.8703V16.2998H17.7984ZM17.7984 16.3405H18.7265C18.7265 16.0818 18.5176 15.8738 18.2602 15.8738V16.8019V17.73C17.4934 17.73 16.8703 17.1078 16.8703 16.3405H17.7984ZM18.2602 16.8019V15.8738C18.1369 15.8738 18.0175 15.924 17.932 16.0091L18.587 16.6666L19.242 17.3241C18.9814 17.5838 18.6305 17.73 18.2602 17.73V16.8019ZM18.587 16.6666L17.9314 16.0097C17.8426 16.0984 17.7937 16.2194 17.7937 16.3403H18.7218H19.6499C19.6499 16.7088 19.5053 17.0614 19.2427 17.3235L18.587 16.6666ZM18.7218 16.3403H17.7937V12.8033H18.7218H19.6499V16.3403H18.7218ZM18.7218 12.8033H17.7937C17.7937 12.1465 18.326 11.6133 18.9837 11.6133V12.5414V13.4695C19.3519 13.4695 19.6499 13.1709 19.6499 12.8033H18.7218ZM18.9837 12.5414V11.6133C19.6405 11.6133 20.1737 12.1455 20.1737 12.8033H19.2456H18.3175C18.3175 13.1714 18.6162 13.4695 18.9837 13.4695V12.5414ZM19.2456 12.8033L20.1737 12.8034L20.1734 15.4732L19.2453 15.4731L18.3172 15.473L18.3175 12.8032L19.2456 12.8033ZM19.2453 15.4731H20.1734C20.1734 15.2157 19.9654 15.0068 19.7067 15.0068V15.9349V16.863C18.9394 16.863 18.3172 16.2399 18.3172 15.4731H19.2453ZM19.7067 15.9349V15.0068C19.585 15.0068 19.4649 15.0561 19.3776 15.1432L20.0333 15.8001L20.6889 16.457C20.4278 16.7176 20.0761 16.863 19.7067 16.863V15.9349ZM20.0333 15.8001L19.377 15.1438C19.2886 15.2322 19.2401 15.3528 19.2401 15.4731H20.1682H21.0963C21.0963 15.8407 20.9524 16.1935 20.6895 16.4564L20.0333 15.8001ZM20.1682 15.4731L19.2401 15.4731L19.2403 10.0616L20.1684 10.0616L21.0965 10.0616L21.0963 15.4731L20.1682 15.4731ZM20.1684 10.0616H19.2403C19.2403 8.68488 18.2393 7.7164 17.1904 7.7164V6.78831V5.86022C19.4258 5.86022 21.0965 7.8289 21.0965 10.0616H20.1684ZM17.1904 6.78831L16.298 6.53334L16.2981 6.53329L17.1904 6.78826L18.0828 7.04322L18.0828 7.04328L17.1904 6.78831Z" fill="#4CAF4F" mask="url(#path-1-inside-1_211_2338)"/>
<path d="M8.32654 18.2463L8.27478 18.219C8.26251 18.2411 8.22806 18.303 8.17712 18.3948C8.19521 18.4038 8.21353 18.4113 8.23181 18.4182C8.26296 18.3621 8.29419 18.3046 8.32654 18.2463Z" fill="#4CAF4F" stroke="#4CAF4F" stroke-width="0.928093"/>
<mask id="path-4-inside-2_211_2338" fill="white">
<path d="M27.5769 25.5164C27.0936 26.3224 26.2987 26.8741 25.3386 27.0702C24.3869 27.2642 23.3861 27.0853 22.5199 26.5659L17.8792 23.782C17.6533 23.6465 17.4936 23.4314 17.4297 23.1759C17.3662 22.9209 17.4059 22.656 17.5412 22.4303C17.6256 22.2893 17.744 22.1781 17.8813 22.096L17.88 22.0951C17.6542 21.9597 17.4944 21.7445 17.4308 21.4893C17.3669 21.2342 17.4065 20.9691 17.542 20.7432C17.6292 20.5981 17.7488 20.4846 17.8852 20.4041C17.6871 20.2678 17.5445 20.0699 17.4857 19.835C17.4218 19.5797 17.4615 19.3148 17.5969 19.0891C17.7322 18.8633 17.9476 18.7038 18.2027 18.64C18.2824 18.62 18.3633 18.6101 18.4433 18.6101C18.6004 18.6103 18.7546 18.6501 18.8963 18.7243C18.905 18.5408 18.9596 18.3605 19.0668 18.2059C19.3608 17.7816 19.9499 17.6642 20.4088 17.9396L24.209 20.2191L23.7191 19.3368C23.5312 18.9999 23.5381 18.5844 23.7373 18.2521C23.8344 18.0904 23.9732 17.9561 24.139 17.8631C24.2752 17.7877 24.4228 17.7519 24.5684 17.7519C24.8812 17.7521 25.1849 17.9171 25.3466 18.2092C25.9101 19.2245 26.9734 21.1392 27.0481 21.2729C27.0641 21.296 27.1121 21.3649 27.1533 21.4234C27.1925 21.479 27.2348 21.5322 27.2786 21.585C28.2274 22.7352 28.3419 24.2415 27.5769 25.5164L27.5769 25.5164ZM26.8745 21.9187C26.8224 21.8556 26.7712 21.7911 26.7246 21.7247C26.583 21.5237 26.5793 21.5184 26.5687 21.4658C26.4031 21.1917 25.999 20.4643 24.8883 18.4632C24.7909 18.2876 24.5695 18.2235 24.3932 18.3209C24.3064 18.3694 24.2367 18.4371 24.1859 18.5219C24.0829 18.6936 24.079 18.9081 24.1762 19.0823L25.1402 20.8191C25.1977 20.9228 25.1785 21.052 25.0934 21.1343C25.0085 21.2168 24.8786 21.2312 24.7766 21.1706L20.1393 18.3886C19.9207 18.2576 19.6325 18.3089 19.4974 18.504C19.4197 18.6162 19.3949 18.75 19.4274 18.8807C19.4572 19.0001 19.5322 19.1008 19.6383 19.1644C19.6386 19.1646 19.6387 19.1649 19.6391 19.1651L22.6711 20.9841C22.7951 21.0585 22.8353 21.2193 22.7608 21.3434C22.6864 21.4672 22.5258 21.5077 22.4015 21.4331L18.6791 19.2C18.5735 19.1367 18.4492 19.118 18.3298 19.148C18.2101 19.1779 18.1094 19.2527 18.0459 19.3588C17.9823 19.4646 17.9639 19.5887 17.9934 19.7081C18.0233 19.8275 18.0982 19.9283 18.2042 19.992L18.9285 20.4264L21.9264 22.2251C22.0504 22.2995 22.0906 22.4602 22.0162 22.5844C21.9417 22.7082 21.7812 22.7485 21.6568 22.6741L18.6241 20.8546C18.406 20.7234 18.122 20.7945 17.9908 21.013C17.9272 21.1189 17.9088 21.2431 17.9383 21.3625C17.9682 21.4818 18.0431 21.5825 18.1492 21.6463L18.8928 22.0924L21.1819 23.4658C21.3059 23.5403 21.3461 23.701 21.2716 23.8251C21.1972 23.9489 21.0366 23.9896 20.9123 23.9148L18.6232 22.5414C18.5175 22.4781 18.3937 22.4594 18.2737 22.4894C18.1543 22.5193 18.0533 22.594 17.9898 22.6998C17.9264 22.8057 17.9078 22.9301 17.9373 23.0493C17.9672 23.1687 18.0421 23.2694 18.1482 23.3331L22.7889 26.1171C23.542 26.5689 24.4105 26.7253 25.2334 26.5574C26.0478 26.3911 26.7205 25.9258 27.1275 25.2472C27.7853 24.1514 27.6907 22.9071 26.8748 21.9187L26.8745 21.9187Z"/>
</mask>
<path d="M27.5769 25.5164C27.0936 26.3224 26.2987 26.8741 25.3386 27.0702C24.3869 27.2642 23.3861 27.0853 22.5199 26.5659L17.8792 23.782C17.6533 23.6465 17.4936 23.4314 17.4297 23.1759C17.3662 22.9209 17.4059 22.656 17.5412 22.4303C17.6256 22.2893 17.744 22.1781 17.8813 22.096L17.88 22.0951C17.6542 21.9597 17.4944 21.7445 17.4308 21.4893C17.3669 21.2342 17.4065 20.9691 17.542 20.7432C17.6292 20.5981 17.7488 20.4846 17.8852 20.4041C17.6871 20.2678 17.5445 20.0699 17.4857 19.835C17.4218 19.5797 17.4615 19.3148 17.5969 19.0891C17.7322 18.8633 17.9476 18.7038 18.2027 18.64C18.2824 18.62 18.3633 18.6101 18.4433 18.6101C18.6004 18.6103 18.7546 18.6501 18.8963 18.7243C18.905 18.5408 18.9596 18.3605 19.0668 18.2059C19.3608 17.7816 19.9499 17.6642 20.4088 17.9396L24.209 20.2191L23.7191 19.3368C23.5312 18.9999 23.5381 18.5844 23.7373 18.2521C23.8344 18.0904 23.9732 17.9561 24.139 17.8631C24.2752 17.7877 24.4228 17.7519 24.5684 17.7519C24.8812 17.7521 25.1849 17.9171 25.3466 18.2092C25.9101 19.2245 26.9734 21.1392 27.0481 21.2729C27.0641 21.296 27.1121 21.3649 27.1533 21.4234C27.1925 21.479 27.2348 21.5322 27.2786 21.585C28.2274 22.7352 28.3419 24.2415 27.5769 25.5164L27.5769 25.5164ZM26.8745 21.9187C26.8224 21.8556 26.7712 21.7911 26.7246 21.7247C26.583 21.5237 26.5793 21.5184 26.5687 21.4658C26.4031 21.1917 25.999 20.4643 24.8883 18.4632C24.7909 18.2876 24.5695 18.2235 24.3932 18.3209C24.3064 18.3694 24.2367 18.4371 24.1859 18.5219C24.0829 18.6936 24.079 18.9081 24.1762 19.0823L25.1402 20.8191C25.1977 20.9228 25.1785 21.052 25.0934 21.1343C25.0085 21.2168 24.8786 21.2312 24.7766 21.1706L20.1393 18.3886C19.9207 18.2576 19.6325 18.3089 19.4974 18.504C19.4197 18.6162 19.3949 18.75 19.4274 18.8807C19.4572 19.0001 19.5322 19.1008 19.6383 19.1644C19.6386 19.1646 19.6387 19.1649 19.6391 19.1651L22.6711 20.9841C22.7951 21.0585 22.8353 21.2193 22.7608 21.3434C22.6864 21.4672 22.5258 21.5077 22.4015 21.4331L18.6791 19.2C18.5735 19.1367 18.4492 19.118 18.3298 19.148C18.2101 19.1779 18.1094 19.2527 18.0459 19.3588C17.9823 19.4646 17.9639 19.5887 17.9934 19.7081C18.0233 19.8275 18.0982 19.9283 18.2042 19.992L18.9285 20.4264L21.9264 22.2251C22.0504 22.2995 22.0906 22.4602 22.0162 22.5844C21.9417 22.7082 21.7812 22.7485 21.6568 22.6741L18.6241 20.8546C18.406 20.7234 18.122 20.7945 17.9908 21.013C17.9272 21.1189 17.9088 21.2431 17.9383 21.3625C17.9682 21.4818 18.0431 21.5825 18.1492 21.6463L18.8928 22.0924L21.1819 23.4658C21.3059 23.5403 21.3461 23.701 21.2716 23.8251C21.1972 23.9489 21.0366 23.9896 20.9123 23.9148L18.6232 22.5414C18.5175 22.4781 18.3937 22.4594 18.2737 22.4894C18.1543 22.5193 18.0533 22.594 17.9898 22.6998C17.9264 22.8057 17.9078 22.9301 17.9373 23.0493C17.9672 23.1687 18.0421 23.2694 18.1482 23.3331L22.7889 26.1171C23.542 26.5689 24.4105 26.7253 25.2334 26.5574C26.0478 26.3911 26.7205 25.9258 27.1275 25.2472C27.7853 24.1514 27.6907 22.9071 26.8748 21.9187L26.8745 21.9187Z" fill="#4CAF4F"/>
<path d="M27.5769 25.5164L27.2774 24.6379L29.6761 23.8202L28.3729 25.9936L27.5769 25.5164ZM25.3386 27.0702L25.5243 27.9795L25.524 27.9796L25.3386 27.0702ZM22.5199 26.5659L22.0426 27.3619L22.0424 27.3618L22.5199 26.5659ZM17.8792 23.782L18.3566 22.9861L18.3566 22.9861L17.8792 23.782ZM17.4297 23.1759L16.5293 23.4012L16.529 23.4L17.4297 23.1759ZM17.5412 22.4303L18.3374 22.9072L18.3372 22.9076L17.5412 22.4303ZM17.8813 22.096L18.3732 21.3089L19.6598 22.1131L18.3579 22.8923L17.8813 22.096ZM17.88 22.0951L18.3574 21.2993L18.3647 21.3036L18.3719 21.3081L17.88 22.0951ZM17.4308 21.4893L18.3311 21.2637L18.3313 21.2648L17.4308 21.4893ZM17.542 20.7432L16.746 20.266L16.7466 20.265L17.542 20.7432ZM17.8852 20.4041L18.4112 19.6394L19.6099 20.464L18.3569 21.2034L17.8852 20.4041ZM17.4857 19.835L18.386 19.6095L18.3861 19.6099L17.4857 19.835ZM17.5969 19.0891L18.3931 19.5661L18.3927 19.5668L17.5969 19.0891ZM18.2027 18.64L18.4287 19.5401L18.4278 19.5404L18.2027 18.64ZM18.4433 18.6101V17.682L18.4443 17.682L18.4433 18.6101ZM18.8963 18.7243L19.8233 18.7682L19.7545 20.2207L18.466 19.5466L18.8963 18.7243ZM19.0668 18.2059L19.8296 18.7346L19.8295 18.7348L19.0668 18.2059ZM20.4088 17.9396L19.9314 18.7354L19.9313 18.7354L20.4088 17.9396ZM24.209 20.2191L25.0204 19.7686L26.7014 22.7964L23.7316 21.0149L24.209 20.2191ZM23.7191 19.3368L24.5296 18.8846L24.5306 18.8863L23.7191 19.3368ZM23.7373 18.2521L22.9414 17.7748L22.9417 17.7744L23.7373 18.2521ZM24.139 17.8631L23.685 17.0536L23.6895 17.0511L24.139 17.8631ZM24.5684 17.7519V16.8238L24.5689 16.8238L24.5684 17.7519ZM25.3466 18.2092L24.5351 18.6595L24.5346 18.6586L25.3466 18.2092ZM27.0481 21.2729L26.2835 21.7989L26.2592 21.7635L26.2382 21.726L27.0481 21.2729ZM27.1533 21.4234L26.3947 21.9582L26.3941 21.9572L27.1533 21.4234ZM27.2786 21.585L27.993 20.9926L27.9945 20.9944L27.2786 21.585ZM27.5769 25.5164L27.8763 26.3948L25.4765 27.213L26.7811 25.0388L27.5769 25.5164ZM26.8745 21.9187L26.9665 22.8422L26.4741 22.8913L26.159 22.5098L26.8745 21.9187ZM26.7246 21.7247L27.4833 21.1901L27.4845 21.1918L26.7246 21.7247ZM26.5687 21.4658L27.363 20.9857L27.4463 21.1236L27.4783 21.2816L26.5687 21.4658ZM24.8883 18.4632L24.0768 18.9136L24.0766 18.9133L24.8883 18.4632ZM24.3932 18.3209L23.94 17.5109L23.9443 17.5085L24.3932 18.3209ZM24.1859 18.5219L24.9819 18.9992L24.9818 18.9993L24.1859 18.5219ZM24.1762 19.0823L24.9866 18.6299L24.9877 18.6319L24.1762 19.0823ZM25.1402 20.8191L24.3288 21.2697L24.3287 21.2695L25.1402 20.8191ZM25.0934 21.1343L24.4469 20.4685L24.4482 20.4672L25.0934 21.1343ZM24.7766 21.1706L24.3021 21.9682L24.2991 21.9664L24.7766 21.1706ZM20.1393 18.3886L20.6164 17.5925L20.6167 17.5927L20.1393 18.3886ZM19.4974 18.504L20.2604 19.0324L20.2602 19.0327L19.4974 18.504ZM19.4274 18.8807L18.527 19.1058L18.5266 19.1045L19.4274 18.8807ZM19.6383 19.1644L19.2231 19.9945L19.1914 19.9786L19.1609 19.9604L19.6383 19.1644ZM19.6391 19.1651L20.0542 18.335L20.086 18.3509L20.1165 18.3692L19.6391 19.1651ZM22.6711 20.9841L23.1486 20.1882L23.1489 20.1884L22.6711 20.9841ZM22.7608 21.3434L23.5568 21.8208L23.5562 21.8217L22.7608 21.3434ZM22.4015 21.4331L22.879 20.6372L22.8792 20.6374L22.4015 21.4331ZM18.6791 19.2L19.1562 18.404L19.1565 18.4042L18.6791 19.2ZM18.3298 19.148L18.556 20.0481L18.5543 20.0486L18.3298 19.148ZM18.0459 19.3588L18.8424 19.8352L18.8412 19.8372L18.0459 19.3588ZM17.9934 19.7081L17.093 19.9332L17.0925 19.9308L17.9934 19.7081ZM18.2042 19.992L17.7268 20.7879L17.7263 20.7876L18.2042 19.992ZM18.9285 20.4264L19.4059 19.6305L19.406 19.6305L18.9285 20.4264ZM21.9264 22.2251L22.4039 21.4292L22.4043 21.4294L21.9264 22.2251ZM22.0162 22.5844L22.8121 23.0617L22.8115 23.0626L22.0162 22.5844ZM21.6568 22.6741L21.1799 23.4703L21.1794 23.4699L21.6568 22.6741ZM18.6241 20.8546L18.1467 21.6504L18.1458 21.6499L18.6241 20.8546ZM17.9908 21.013L18.7864 21.4908L18.7864 21.4908L17.9908 21.013ZM17.9383 21.3625L17.0379 21.5875L17.0374 21.5852L17.9383 21.3625ZM18.1492 21.6463L17.6718 22.4422L17.671 22.4417L18.1492 21.6463ZM18.8928 22.0924L19.3702 21.2965L19.3703 21.2965L18.8928 22.0924ZM21.1819 23.4658L21.6594 22.67L21.6597 22.6702L21.1819 23.4658ZM21.2716 23.8251L22.0675 24.3025L22.067 24.3034L21.2716 23.8251ZM20.9123 23.9148L21.3898 23.119L21.3908 23.1196L20.9123 23.9148ZM18.6232 22.5414L19.1003 21.7453L19.1006 21.7456L18.6232 22.5414ZM18.2737 22.4894L18.0486 21.589L18.0486 21.589L18.2737 22.4894ZM17.9898 22.6998L17.1937 22.2228L17.194 22.2223L17.9898 22.6998ZM17.9373 23.0493L17.037 23.2744L17.0365 23.2723L17.9373 23.0493ZM18.1482 23.3331L17.6708 24.129L17.67 24.1285L18.1482 23.3331ZM22.7889 26.1171L23.2664 25.3212L23.2664 25.3212L22.7889 26.1171ZM25.2334 26.5574L25.4191 27.4667L25.419 27.4667L25.2334 26.5574ZM27.1275 25.2472L26.3316 24.7699L26.3318 24.7696L27.1275 25.2472ZM26.8748 21.9187L26.7829 20.9952L27.2755 20.9461L27.5906 21.3279L26.8748 21.9187ZM27.5769 25.5164L28.3729 25.9936C27.7493 27.0335 26.7271 27.7338 25.5243 27.9795L25.3386 27.0702L25.1528 26.1609C25.8704 26.0143 26.4378 25.6113 26.7809 25.0391L27.5769 25.5164ZM25.3386 27.0702L25.524 27.9796C24.3354 28.2219 23.0991 27.9954 22.0426 27.3619L22.5199 26.5659L22.9971 25.7699C23.673 26.1752 24.4385 26.3065 25.1532 26.1608L25.3386 27.0702ZM22.5199 26.5659L22.0424 27.3618L17.4017 24.5779L17.8792 23.782L18.3566 22.9861L22.9973 25.77L22.5199 26.5659ZM17.8792 23.782L17.4017 24.5779C16.9653 24.3161 16.6532 23.8959 16.5293 23.4012L17.4297 23.1759L18.33 22.9505C18.3325 22.9606 18.336 22.9668 18.3391 22.971C18.3422 22.9752 18.3473 22.9806 18.3566 22.9861L17.8792 23.782ZM17.4297 23.1759L16.529 23.4C16.4061 22.906 16.4839 22.389 16.7452 21.9531L17.5412 22.4303L18.3372 22.9076C18.3316 22.9169 18.3296 22.9241 18.3288 22.9295C18.328 22.9348 18.3278 22.9419 18.3303 22.9517L17.4297 23.1759ZM17.5412 22.4303L16.7449 21.9535C16.917 21.6662 17.1522 21.4507 17.4046 21.2996L17.8813 22.096L18.3579 22.8923C18.3466 22.8991 18.3406 22.9043 18.3382 22.9067C18.336 22.9088 18.3364 22.9089 18.3374 22.9072L17.5412 22.4303ZM17.8813 22.096L17.3894 22.883L17.3881 22.8822L17.88 22.0951L18.3719 21.3081L18.3732 21.3089L17.8813 22.096ZM17.88 22.0951L17.4026 22.891C16.9663 22.6293 16.6538 22.2091 16.5303 21.7139L17.4308 21.4893L18.3313 21.2648C18.3337 21.2743 18.337 21.2802 18.34 21.2843C18.3431 21.2884 18.3481 21.2937 18.3574 21.2993L17.88 22.0951ZM17.4308 21.4893L16.5306 21.715C16.4065 21.2199 16.4845 20.7021 16.746 20.266L17.542 20.7432L18.338 21.2204C18.3323 21.2299 18.3303 21.2371 18.3296 21.2423C18.3288 21.2474 18.3287 21.2542 18.3311 21.2637L17.4308 21.4893ZM17.542 20.7432L16.7466 20.265C16.9179 19.98 17.152 19.7591 17.4136 19.6048L17.8852 20.4041L18.3569 21.2034C18.3509 21.2069 18.3468 21.2103 18.3441 21.2129C18.3415 21.2154 18.3394 21.218 18.3374 21.2214L17.542 20.7432ZM17.8852 20.4041L17.3592 21.1687C16.9843 20.9108 16.7017 20.5255 16.5854 20.0601L17.4857 19.835L18.3861 19.6099C18.3872 19.6143 18.3887 19.6174 18.3911 19.6208C18.3937 19.6245 18.3995 19.6314 18.4112 19.6394L17.8852 20.4041ZM17.4857 19.835L16.5855 20.0605C16.4615 19.5654 16.5394 19.0477 16.8012 18.6115L17.5969 19.0891L18.3927 19.5668C18.3872 19.576 18.3852 19.583 18.3845 19.588C18.3837 19.5929 18.3836 19.5998 18.386 19.6095L17.4857 19.835ZM17.5969 19.0891L16.8008 18.6122C17.0627 18.175 17.4835 17.8631 17.9777 17.7396L18.2027 18.64L18.4278 19.5404C18.4179 19.5428 18.4117 19.5463 18.4076 19.5494C18.4035 19.5524 18.3984 19.5573 18.3931 19.5661L17.5969 19.0891ZM18.2027 18.64L17.9768 17.7398C18.1305 17.7012 18.2873 17.682 18.4433 17.682V18.6101V19.5382C18.4393 19.5382 18.4344 19.5387 18.4287 19.5401L18.2027 18.64ZM18.4433 18.6101L18.4443 17.682C18.7596 17.6824 19.0602 17.7626 19.3265 17.9019L18.8963 18.7243L18.466 19.5466C18.4572 19.542 18.4509 19.54 18.4474 19.5391C18.444 19.5382 18.4425 19.5382 18.4423 19.5382L18.4433 18.6101ZM18.8963 18.7243L17.9692 18.6804C17.9852 18.3428 18.087 17.9902 18.3042 17.677L19.0668 18.2059L19.8295 18.7348C19.8322 18.7309 19.8247 18.7387 19.8233 18.7682L18.8963 18.7243ZM19.0668 18.2059L18.304 17.6772C18.8919 16.8291 20.0316 16.6309 20.8863 17.1437L20.4088 17.9396L19.9313 18.7354C19.9042 18.7192 19.8777 18.7165 19.8569 18.7207C19.8366 18.7247 19.831 18.7326 19.8296 18.7346L19.0668 18.2059ZM20.4088 17.9396L20.8862 17.1437L24.6864 19.4232L24.209 20.2191L23.7316 21.0149L19.9314 18.7354L20.4088 17.9396ZM24.209 20.2191L23.3976 20.6696L22.9077 19.7873L23.7191 19.3368L24.5306 18.8863L25.0204 19.7686L24.209 20.2191ZM23.7191 19.3368L22.9087 19.789C22.5581 19.1607 22.5721 18.3906 22.9414 17.7748L23.7373 18.2521L24.5333 18.7294C24.5041 18.7781 24.5043 18.8392 24.5296 18.8846L23.7191 19.3368ZM23.7373 18.2521L22.9417 17.7744C23.1227 17.4729 23.3797 17.2248 23.685 17.0536L24.139 17.8631L24.5929 18.6726C24.5666 18.6874 24.5462 18.7079 24.533 18.7298L23.7373 18.2521ZM24.139 17.8631L23.6895 17.0511C23.9672 16.8974 24.27 16.8238 24.5684 16.8238V17.7519V18.68C24.5716 18.68 24.5753 18.6796 24.5792 18.6786C24.5832 18.6776 24.5864 18.6762 24.5884 18.6751L24.139 17.8631ZM24.5684 17.7519L24.5689 16.8238C25.2032 16.8242 25.826 17.1588 26.1586 17.7597L25.3466 18.2092L24.5346 18.6586C24.536 18.6613 24.5385 18.6647 24.5419 18.6682C24.5452 18.6715 24.5485 18.6739 24.5515 18.6756C24.5567 18.6786 24.5619 18.68 24.568 18.68L24.5684 17.7519ZM25.3466 18.2092L26.1581 17.7588C26.7222 18.7753 27.7844 20.6879 27.8581 20.8198L27.0481 21.2729L26.2382 21.726C26.1624 21.5905 25.0979 19.6736 24.5351 18.6595L25.3466 18.2092ZM27.0481 21.2729L27.8128 20.7469C27.8259 20.7659 27.8717 20.8316 27.9125 20.8896L27.1533 21.4234L26.3941 21.9572C26.3525 21.8981 26.3022 21.8261 26.2835 21.7989L27.0481 21.2729ZM27.1533 21.4234L27.9118 20.8887C27.931 20.9159 27.956 20.948 27.993 20.9926L27.2786 21.585L26.5641 22.1774C26.5135 22.1163 26.4539 22.0422 26.3947 21.9582L27.1533 21.4234ZM27.2786 21.585L27.9945 20.9944C29.1924 22.4465 29.3408 24.3805 28.3727 25.9939L27.5769 25.5164L26.7811 25.0388C27.343 24.1024 27.2625 23.0239 26.5626 22.1756L27.2786 21.585ZM27.5769 25.5164L27.2774 24.6379L27.2774 24.6379L27.5769 25.5164L27.8764 26.3948L27.8763 26.3948L27.5769 25.5164ZM26.8745 21.9187L26.159 22.5098C26.1003 22.4387 26.0316 22.3529 25.9648 22.2576L26.7246 21.7247L27.4845 21.1918C27.5108 21.2293 27.5444 21.2724 27.5901 21.3277L26.8745 21.9187ZM26.7246 21.7247L25.966 22.2593C25.9076 22.1764 25.8448 22.0884 25.8031 22.0194C25.7752 21.9732 25.7379 21.9058 25.7064 21.82C25.6757 21.7364 25.662 21.6647 25.6591 21.65L26.5687 21.4658L27.4783 21.2816C27.4807 21.2931 27.4715 21.2419 27.4489 21.1803C27.4255 21.1166 27.3999 21.0729 27.392 21.0598C27.3882 21.0535 27.3867 21.0515 27.3897 21.0559C27.3924 21.0601 27.3974 21.0674 27.4057 21.0795C27.423 21.1046 27.4468 21.1384 27.4833 21.1901L26.7246 21.7247ZM26.5687 21.4658L25.7744 21.9458C25.5971 21.6525 25.1798 20.9007 24.0768 18.9136L24.8883 18.4632L25.6997 18.0128C26.8182 20.0279 27.209 20.731 27.363 20.9857L26.5687 21.4658ZM24.8883 18.4632L24.0766 18.9133C24.2269 19.1843 24.569 19.284 24.842 19.1332L24.3932 18.3209L23.9443 17.5085C24.5699 17.1629 25.3548 17.3908 25.6999 18.0131L24.8883 18.4632ZM24.3932 18.3209L24.8464 19.1308C24.9009 19.1003 24.9494 19.0533 24.9819 18.9992L24.1859 18.5219L23.3899 18.0447C23.524 17.8209 23.7119 17.6385 23.94 17.5109L24.3932 18.3209ZM24.1859 18.5219L24.9818 18.9993C25.0482 18.8885 25.0527 18.7484 24.9866 18.6299L24.1762 19.0823L23.3659 19.5347C23.1052 19.0679 23.1176 18.4987 23.39 18.0445L24.1859 18.5219ZM24.1762 19.0823L24.9877 18.6319L25.9517 20.3688L25.1402 20.8191L24.3287 21.2695L23.3647 19.5327L24.1762 19.0823ZM25.1402 20.8191L25.9515 20.3685C26.2128 20.839 26.126 21.4268 25.7387 21.8014L25.0934 21.1343L24.4482 20.4672C24.231 20.6773 24.1826 21.0065 24.3288 21.2697L25.1402 20.8191ZM25.0934 21.1343L25.74 21.8002C25.3495 22.1793 24.7592 22.2401 24.3021 21.9682L24.7766 21.1706L25.2511 20.3729C24.998 20.2224 24.6674 20.2543 24.4469 20.4685L25.0934 21.1343ZM24.7766 21.1706L24.2991 21.9664L19.6618 19.1845L20.1393 18.3886L20.6167 17.5927L25.254 20.3747L24.7766 21.1706ZM20.1393 18.3886L19.6621 19.1846C19.7526 19.2389 19.8549 19.2547 19.9509 19.2375C20.0468 19.2203 20.1705 19.1622 20.2604 19.0324L19.4974 18.504L18.7344 17.9757C19.1811 17.3305 20.0305 17.2413 20.6164 17.5925L20.1393 18.3886ZM19.4974 18.504L20.2602 19.0327C20.3327 18.9281 20.3607 18.7883 20.3281 18.657L19.4274 18.8807L18.5266 19.1045C18.4291 18.7118 18.5066 18.3043 18.7346 17.9754L19.4974 18.504ZM19.4274 18.8807L20.3277 18.6556C20.2974 18.5341 20.2188 18.4304 20.1156 18.3685L19.6383 19.1644L19.1609 19.9604C18.8455 19.7712 18.6171 19.4662 18.527 19.1058L19.4274 18.8807ZM19.6383 19.1644L20.0534 18.3344C20.1372 18.3763 20.1989 18.4231 20.238 18.4561C20.2572 18.4723 20.272 18.4863 20.281 18.4949C20.2856 18.4992 20.2892 18.5028 20.2914 18.505C20.2925 18.5061 20.2935 18.507 20.294 18.5076C20.2943 18.5079 20.2945 18.5081 20.2947 18.5082C20.2947 18.5083 20.2948 18.5084 20.2948 18.5084C20.2948 18.5084 20.2949 18.5084 20.2949 18.5085C20.2949 18.5085 20.2949 18.5085 20.2949 18.5085C20.2949 18.5085 20.2949 18.5085 20.2949 18.5085C20.2952 18.5088 20.2935 18.5071 20.2915 18.5051C20.2893 18.503 20.2857 18.4994 20.2812 18.495C20.2723 18.4865 20.2575 18.4726 20.2383 18.4564C20.1994 18.4235 20.1379 18.3769 20.0542 18.335L19.6391 19.1651L19.2239 19.9952C19.1401 19.9532 19.0784 19.9065 19.0394 19.8734C19.0202 19.8572 19.0053 19.8433 18.9963 19.8347C18.9918 19.8303 18.9881 19.8267 18.9859 19.8245C18.9848 19.8234 18.9839 19.8225 18.9833 19.8219C18.983 19.8217 18.9828 19.8214 18.9827 19.8213C18.9826 19.8212 18.9825 19.8212 18.9825 19.8211C18.9825 19.8211 18.9825 19.8211 18.9825 19.8211C18.9825 19.8211 18.9824 19.8211 18.9824 19.8211C18.9824 19.8211 18.9824 19.8211 18.9824 19.8211C18.9821 19.8208 18.9838 19.8225 18.9858 19.8244C18.988 19.8266 18.9916 19.8301 18.9962 19.8345C19.0051 19.843 19.0199 19.8569 19.039 19.8731C19.0779 19.906 19.1394 19.9527 19.2231 19.9945L19.6383 19.1644ZM19.6391 19.1651L20.1165 18.3692L23.1486 20.1882L22.6711 20.9841L22.1937 21.78L19.1616 19.961L19.6391 19.1651ZM22.6711 20.9841L23.1489 20.1884C23.7123 20.5268 23.8947 21.2574 23.5568 21.8208L22.7608 21.3434L21.9649 20.866C21.776 21.1811 21.8779 21.5903 22.1933 21.7797L22.6711 20.9841ZM22.7608 21.3434L23.5562 21.8217C23.2187 22.383 22.489 22.5681 21.9239 22.2288L22.4015 21.4331L22.8792 20.6374C22.5627 20.4474 22.1541 20.5515 21.9655 20.8651L22.7608 21.3434ZM22.4015 21.4331L21.9241 22.229L18.2016 19.9959L18.6791 19.2L19.1565 18.4042L22.879 20.6372L22.4015 21.4331ZM18.6791 19.2L18.2019 19.9961C18.3062 20.0586 18.4347 20.0786 18.556 20.0481L18.3298 19.148L18.1035 18.248C18.4636 18.1575 18.8407 18.2149 19.1562 18.404L18.6791 19.2ZM18.3298 19.148L18.5543 20.0486C18.6748 20.0185 18.7796 19.9402 18.8424 19.8352L18.0459 19.3588L17.2494 18.8824C17.4392 18.5652 17.7453 18.3373 18.1053 18.2475L18.3298 19.148ZM18.0459 19.3588L18.8412 19.8372C18.9049 19.7312 18.9235 19.6031 18.8944 19.4853L17.9934 19.7081L17.0925 19.9308C17.0043 19.5743 17.0596 19.1979 17.2506 18.8804L18.0459 19.3588ZM17.9934 19.7081L18.8938 19.483C18.8636 19.3621 18.7855 19.2585 18.682 19.1963L18.2042 19.992L17.7263 20.7876C17.4109 20.5981 17.183 20.2929 17.093 19.9332L17.9934 19.7081ZM18.2042 19.992L18.6815 19.196L19.4059 19.6305L18.9285 20.4264L18.4512 21.2223L17.7268 20.7879L18.2042 19.992ZM18.9285 20.4264L19.406 19.6305L22.4039 21.4292L21.9264 22.2251L21.449 23.0209L18.451 21.2222L18.9285 20.4264ZM21.9264 22.2251L22.4043 21.4294C22.9677 21.7677 23.15 22.4984 22.8121 23.0617L22.0162 22.5844L21.2202 22.107C21.0313 22.4221 21.1332 22.8313 21.4486 23.0207L21.9264 22.2251ZM22.0162 22.5844L22.8115 23.0626C22.4735 23.6248 21.7438 23.808 21.1799 23.4703L21.6568 22.6741L22.1337 21.8779C21.8185 21.689 21.4099 21.7916 21.2208 22.1061L22.0162 22.5844ZM21.6568 22.6741L21.1794 23.4699L18.1467 21.6504L18.6241 20.8546L19.1016 20.0587L22.1343 21.8782L21.6568 22.6741ZM18.6241 20.8546L18.1458 21.6499C18.3686 21.7839 18.6545 21.7105 18.7864 21.4908L17.9908 21.013L17.1952 20.5351C17.5895 19.8786 18.4434 19.6628 19.1025 20.0593L18.6241 20.8546ZM17.9908 21.013L18.7864 21.4908C18.8497 21.3855 18.8684 21.2576 18.8393 21.1397L17.9383 21.3625L17.0374 21.5852C16.9492 21.2285 17.0047 20.8524 17.1952 20.5351L17.9908 21.013ZM17.9383 21.3625L18.8387 21.1374C18.8083 21.0157 18.7298 20.9125 18.6274 20.8509L18.1492 21.6463L17.671 22.4417C17.3565 22.2526 17.1281 21.948 17.0379 21.5875L17.9383 21.3625ZM18.1492 21.6463L18.6267 20.8505L19.3702 21.2965L18.8928 22.0924L18.4153 22.8882L17.6718 22.4422L18.1492 21.6463ZM18.8928 22.0924L19.3703 21.2965L21.6594 22.67L21.1819 23.4658L20.7044 24.2617L18.4153 22.8882L18.8928 22.0924ZM21.1819 23.4658L21.6597 22.6702C22.2231 23.0085 22.4054 23.7391 22.0675 24.3025L21.2716 23.8251L20.4757 23.3478C20.2867 23.6629 20.3887 24.072 20.7041 24.2615L21.1819 23.4658ZM21.2716 23.8251L22.067 24.3034C21.73 24.8638 21.0002 25.0508 20.4339 24.7101L20.9123 23.9148L21.3908 23.1196C21.0731 22.9284 20.6643 23.0341 20.4763 23.3469L21.2716 23.8251ZM20.9123 23.9148L20.4348 24.7107L18.1457 23.3372L18.6232 22.5414L19.1006 21.7456L21.3898 23.119L20.9123 23.9148ZM18.6232 22.5414L18.146 23.3374C18.2505 23.4001 18.3792 23.4197 18.4988 23.3898L18.2737 22.4894L18.0486 21.589C18.4083 21.4991 18.7845 21.5561 19.1003 21.7453L18.6232 22.5414ZM18.2737 22.4894L18.4988 23.3898C18.6182 23.3599 18.7225 23.2826 18.7857 23.1773L17.9898 22.6998L17.194 22.2223C17.3841 21.9055 17.6904 21.6786 18.0486 21.589L18.2737 22.4894ZM17.9898 22.6998L18.786 23.1768C18.8483 23.0727 18.8677 22.9453 18.8382 22.8262L17.9373 23.0493L17.0365 23.2723C16.9479 22.9148 17.0044 22.5388 17.1937 22.2229L17.9898 22.6998ZM17.9373 23.0493L18.8377 22.8242C18.8073 22.7025 18.7288 22.5993 18.6265 22.5377L18.1482 23.3331L17.67 24.1285C17.3555 23.9394 17.1271 23.6348 17.037 23.2744L17.9373 23.0493ZM18.1482 23.3331L18.6257 22.5373L23.2664 25.3212L22.7889 26.1171L22.3115 26.9129L17.6708 24.129L18.1482 23.3331ZM22.7889 26.1171L23.2664 25.3212C23.8304 25.6596 24.4635 25.7673 25.0479 25.648L25.2334 26.5574L25.419 27.4667C24.3575 27.6833 23.2536 27.4782 22.3115 26.9129L22.7889 26.1171ZM25.2334 26.5574L25.0477 25.648C25.6217 25.5308 26.0659 25.2128 26.3316 24.7699L27.1275 25.2472L27.9234 25.7246C27.3751 26.6388 26.4739 27.2513 25.4191 27.4667L25.2334 26.5574ZM27.1275 25.2472L26.3318 24.7696C26.7863 24.0123 26.7257 23.1959 26.1591 22.5095L26.8748 21.9187L27.5906 21.3279C28.6557 22.6182 28.7843 24.2905 27.9233 25.7249L27.1275 25.2472ZM26.8748 21.9187L26.9668 22.8422L26.9665 22.8422L26.8745 21.9187L26.7826 20.9952L26.7829 20.9952L26.8748 21.9187Z" fill="#4CAF4F" mask="url(#path-4-inside-2_211_2338)"/>
</svg>
