<svg width="96" height="18" viewBox="0 0 96 18" fill="none" xmlns="http://www.w3.org/2000/svg">
<path d="M14.6577 0V17.5243H11.4575L3.83343 6.49459H3.70508V17.5243H0V0H3.25157L10.8158 11.0211H10.9698V0H14.6577Z" fill="white"/>
<path d="M23.6402 17.781C22.2882 17.781 21.1245 17.5071 20.1491 16.9595C19.1793 16.4062 18.432 15.6247 17.9072 14.615C17.3824 13.5996 17.12 12.3988 17.12 11.0126C17.12 9.66059 17.3824 8.47405 17.9072 7.45295C18.432 6.43184 19.1707 5.63606 20.1234 5.06561C21.0817 4.49516 22.2055 4.20993 23.4947 4.20993C24.3618 4.20993 25.169 4.34969 25.9163 4.62921C26.6693 4.90303 27.3253 5.31661 27.8844 5.86994C28.4491 6.42328 28.8884 7.11923 29.2021 7.9578C29.5159 8.79065 29.6727 9.76613 29.6727 10.8842V11.8854H18.5746V9.62637H26.2415C26.2415 9.10155 26.1274 8.63663 25.8992 8.23161C25.671 7.82659 25.3544 7.50999 24.9494 7.28181C24.5501 7.04793 24.0852 6.93098 23.5546 6.93098C23.0013 6.93098 22.5107 7.05933 22.0829 7.31604C21.6607 7.56704 21.3299 7.90645 21.0903 8.33429C20.8507 8.75643 20.7281 9.22705 20.7224 9.74616V11.8939C20.7224 12.5442 20.8422 13.1061 21.0817 13.5796C21.327 14.0531 21.6722 14.4182 22.1171 14.6749C22.5621 14.9316 23.0897 15.0599 23.7001 15.0599C24.1051 15.0599 24.4759 15.0029 24.8125 14.8888C25.1491 14.7747 25.4371 14.6036 25.6767 14.3754C25.9163 14.1472 26.0989 13.8677 26.2244 13.5368L29.5957 13.7593C29.4246 14.5693 29.0738 15.2767 28.5432 15.8814C28.0184 16.4803 27.3396 16.9481 26.5067 17.2847C25.6796 17.6155 24.7241 17.781 23.6402 17.781Z" fill="white"/>
<path d="M34.8624 4.38107L37.2754 8.97605L39.7483 4.38107H43.4876L39.6799 10.9527L43.5903 17.5243H39.8681L37.2754 12.9806L34.7255 17.5243H30.9605L34.8624 10.9527L31.0974 4.38107H34.8624Z" fill="white"/>
<path d="M51.1203 17.781C49.774 17.781 48.616 17.4957 47.6462 16.9253C46.6822 16.3491 45.9406 15.5505 45.4215 14.5294C44.9081 13.5083 44.6514 12.3332 44.6514 11.004C44.6514 9.65774 44.9109 8.47691 45.43 7.4615C45.9548 6.4404 46.6993 5.64461 47.6633 5.07416C48.6274 4.49801 49.774 4.20993 51.1032 4.20993C52.2498 4.20993 53.2538 4.41815 54.1151 4.83457C54.9765 5.251 55.6582 5.83572 56.1602 6.58871C56.6622 7.34171 56.9389 8.22591 56.9902 9.24131H53.5504C53.4534 8.58529 53.1967 8.05762 52.7803 7.65831C52.3696 7.25329 51.8305 7.05078 51.1631 7.05078C50.5983 7.05078 50.1049 7.2048 49.6827 7.51284C49.2663 7.81518 48.9412 8.25728 48.7073 8.83914C48.4734 9.421 48.3564 10.1255 48.3564 10.9527C48.3564 11.7912 48.4705 12.5043 48.6987 13.0919C48.9326 13.6794 49.2606 14.1272 49.6827 14.4353C50.1049 14.7433 50.5983 14.8973 51.1631 14.8973C51.5795 14.8973 51.9531 14.8118 52.284 14.6406C52.6206 14.4695 52.8972 14.2214 53.114 13.8962C53.3365 13.5653 53.4819 13.1689 53.5504 12.7068H56.9902C56.9332 13.7108 56.6594 14.595 56.1688 15.3594C55.6839 16.1181 55.0136 16.7114 54.1579 17.1392C53.3022 17.567 52.2897 17.781 51.1203 17.781Z" fill="white"/>
<path d="M65.3138 17.781C63.9618 17.781 62.7981 17.5071 61.8227 16.9595C60.8529 16.4062 60.1056 15.6247 59.5808 14.615C59.056 13.5996 58.7936 12.3988 58.7936 11.0126C58.7936 9.66059 59.056 8.47405 59.5808 7.45295C60.1056 6.43184 60.8443 5.63606 61.797 5.06561C62.7553 4.49516 63.8791 4.20993 65.1684 4.20993C66.0354 4.20993 66.8426 4.34969 67.5899 4.62921C68.3429 4.90303 68.9989 5.31661 69.558 5.86994C70.1227 6.42328 70.562 7.11923 70.8757 7.9578C71.1895 8.79065 71.3463 9.76613 71.3463 10.8842V11.8854H60.2482V9.62637H67.9151C67.9151 9.10155 67.801 8.63663 67.5728 8.23161C67.3446 7.82659 67.028 7.50999 66.623 7.28181C66.2237 7.04793 65.7588 6.93098 65.2282 6.93098C64.6749 6.93098 64.1843 7.05933 63.7565 7.31604C63.3344 7.56704 63.0035 7.90645 62.7639 8.33429C62.5243 8.75643 62.4017 9.22705 62.396 9.74616V11.8939C62.396 12.5442 62.5158 13.1061 62.7553 13.5796C63.0006 14.0531 63.3458 14.4182 63.7907 14.6749C64.2357 14.9316 64.7633 15.0599 65.3737 15.0599C65.7787 15.0599 66.1495 15.0029 66.4861 14.8888C66.8227 14.7747 67.1107 14.6036 67.3503 14.3754C67.5899 14.1472 67.7725 13.8677 67.898 13.5368L71.2693 13.7593C71.0982 14.5693 70.7474 15.2767 70.2169 15.8814C69.692 16.4803 69.0132 16.9481 68.1803 17.2847C67.3532 17.6155 66.3977 17.781 65.3138 17.781Z" fill="white"/>
<path d="M77.3703 9.92585V17.5243H73.7251V4.38107H77.1992V6.69995H77.3532C77.6441 5.93555 78.1319 5.33087 78.8164 4.88591C79.5009 4.43526 80.3309 4.20993 81.3064 4.20993C82.2191 4.20993 83.0149 4.40959 83.6938 4.80891C84.3726 5.20822 84.9003 5.77867 85.2768 6.52026C85.6533 7.25614 85.8415 8.13464 85.8415 9.15574V17.5243H82.1963V9.80606C82.202 9.00172 81.9967 8.37422 81.5802 7.92357C81.1638 7.46721 80.5905 7.23903 79.8603 7.23903C79.3697 7.23903 78.9362 7.34456 78.5597 7.55563C78.1889 7.76669 77.898 8.07474 77.6869 8.47976C77.4815 8.87908 77.376 9.36111 77.3703 9.92585Z" fill="white"/>
<path d="M95.7053 4.38107V7.11923H87.7903V4.38107H95.7053ZM89.5872 1.23218H93.2324V13.4855C93.2324 13.822 93.2838 14.0844 93.3864 14.2727C93.4891 14.4552 93.6317 14.5836 93.8143 14.6577C94.0025 14.7319 94.2193 14.769 94.4646 14.769C94.6357 14.769 94.8069 14.7547 94.978 14.7262C95.1491 14.692 95.2803 14.6663 95.3716 14.6492L95.9449 17.3617C95.7624 17.4187 95.5057 17.4843 95.1748 17.5585C94.8439 17.6384 94.4418 17.6868 93.9683 17.704C93.0898 17.7382 92.3197 17.6212 91.658 17.3531C91.0019 17.085 90.4914 16.6686 90.1263 16.1038C89.7612 15.5391 89.5815 14.826 89.5872 13.9646V1.23218Z" fill="white"/>
</svg>
