<svg width="13" height="13" viewBox="0 0 13 13" fill="none" xmlns="http://www.w3.org/2000/svg">
<g clip-path="url(#clip0_13809_227)">
<path fill-rule="evenodd" clip-rule="evenodd" d="M11.8543 0.675015C11.9961 0.816824 12.0442 1.02733 11.9779 1.21662L8.32357 11.6577C8.25286 11.8597 8.06598 11.9981 7.85211 12.0068C7.63823 12.0155 7.4407 11.8928 7.35377 11.6972L5.34711 7.18224L0.832124 5.17558C0.636521 5.08865 0.513806 4.89112 0.522531 4.67725C0.531257 4.46337 0.669655 4.27649 0.871689 4.20578L11.3127 0.551418C11.502 0.485167 11.7125 0.533206 11.8543 0.675015ZM6.36529 6.90235L7.77309 10.0699L10.2367 3.03093L6.36529 6.90235ZM9.49843 2.29263L2.45947 4.75627L5.627 6.16406L9.49843 2.29263Z" fill="white"/>
</g>
<defs>
<clipPath id="clip0_13809_227">
<rect width="12.5293" height="12.5293" fill="white"/>
</clipPath>
</defs>
</svg>
